<?xml version="1.0" encoding="utf-8"?>
<!-- Generator: Adobe Illustrator 25.4.1, SVG Export Plug-In . SVG Version: 6.00 Build 0)  -->
<svg version="1.1" id="Group_126" xmlns="http://www.w3.org/2000/svg" xmlns:xlink="http://www.w3.org/1999/xlink" x="0px" y="0px"
	 viewBox="0 0 24 14.5" style="enable-background:new 0 0 24 14.5;" xml:space="preserve">
<path id="Path_84" class="st0" d="M4.1,7.4h6.2c0.4,0,0.8-0.4,0.7-0.8c0-0.4-0.3-0.7-0.7-0.7H4.1c-0.4,0-0.8,0.3-0.8,0.7
	c0,0,0,0,0,0C3.3,7,3.7,7.4,4.1,7.4z"/>
<path id="Path_85" class="st0" d="M4.1,10.8h4.6c0.4,0,0.8-0.4,0.7-0.8c0-0.4-0.3-0.7-0.7-0.7H4.1c-0.4,0-0.8,0.3-0.8,0.7
	c0,0,0,0,0,0C3.3,10.4,3.7,10.8,4.1,10.8z"/>
<path id="Path_86" class="st0" d="M4.1,4h2.4C7,4,7.3,3.7,7.3,3.3c0-0.4-0.3-0.8-0.7-0.8c0,0,0,0-0.1,0H4.1c-0.4,0-0.8,0.3-0.8,0.7
	c0,0,0,0,0,0C3.3,3.7,3.7,4,4.1,4z"/>
<path id="Path_87" class="st0" d="M17.2,3.6c-0.4,0-0.7,0.4-0.6,0.8c0,0.3,0.3,0.6,0.6,0.6c0.5,0,0.9,0.4,0.9,0.9c0,0,0,0,0,0
	c0,0.4,0.2,0.7,0.6,0.8c0.4,0,0.7-0.2,0.8-0.6c0,0,0-0.1,0-0.1C19.5,4.7,18.5,3.6,17.2,3.6z"/>
<path id="Path_88" class="st0" d="M23.8,11.4l-2.6-2.6c1.5-2.2,1-5.2-1.2-6.8c-2.2-1.5-5.2-1-6.8,1.2s-1,5.2,1.2,6.8
	c1.7,1.2,4,1.2,5.7-0.1l2.6,2.6c0.1,0.1,0.3,0.2,0.5,0.2c0.2,0,0.4-0.1,0.5-0.2C24.1,12.3,24.1,11.8,23.8,11.4
	C23.8,11.5,23.8,11.4,23.8,11.4z M13.7,5.9c0-1.9,1.5-3.5,3.5-3.5c1.9,0,3.5,1.5,3.5,3.5c0,1.9-1.5,3.5-3.5,3.5c0,0,0,0,0,0
	C15.3,9.4,13.7,7.8,13.7,5.9z"/>
<path class="st0" d="M20.9,13C20.9,12.9,20.9,12.9,20.9,13h-3h-0.2h-16c-0.1,0-0.1-0.1-0.2-0.2V4h0V0.8C1.5,0.3,1.2,0,0.8,0
	C0.4,0,0,0.3,0,0.7c0,0,0,0,0,0V4h0v8.8c0,0.9,0.8,1.7,1.7,1.7h16v0h3.2c0.4,0,0.8-0.3,0.8-0.8C21.7,13.3,21.3,13,20.9,13z"/>
</svg>
